<svg width="4465" height="1479" viewBox="0 0 4465 1479" fill="none" xmlns="http://www.w3.org/2000/svg">
<path d="M1569.92 0.75H1005.88C956.69 0.75 916.816 40.6222 916.816 89.8071V653.836C916.816 703.021 956.69 742.893 1005.88 742.893H1569.92C1619.11 742.893 1658.98 703.021 1658.98 653.836V89.8071C1658.98 40.6222 1619.11 0.75 1569.92 0.75Z" fill="url(#paint0_linear_4_99)" stroke="#204CAC" stroke-width="1.5"/>
<path d="M1282.84 174.893C1330.04 174.893 1370.84 183.493 1405.24 200.693C1439.64 217.493 1466.04 241.693 1484.44 273.293C1503.24 304.493 1512.64 341.693 1512.64 384.893C1512.64 428.093 1503.24 465.493 1484.44 497.093C1466.04 528.293 1439.64 552.493 1405.24 569.693C1370.84 586.493 1330.04 594.893 1282.84 594.893H1140.04L1139.44 569.693C1151.04 569.693 1163.04 569.693 1175.44 569.693C1188.24 569.693 1200.64 569.693 1212.64 569.693C1224.64 569.693 1235.24 569.693 1244.44 569.693C1254.04 569.693 1261.64 569.693 1267.24 569.693C1272.84 569.693 1275.64 569.693 1275.64 569.693C1304.44 569.693 1329.24 562.293 1350.04 547.493C1370.84 532.293 1386.84 510.893 1398.04 483.293C1409.24 455.693 1414.84 422.893 1414.84 384.893C1414.84 346.893 1409.24 314.093 1398.04 286.493C1386.84 258.893 1370.84 237.693 1350.04 222.893C1329.24 207.693 1304.44 200.093 1275.64 200.093C1275.64 200.093 1272.64 200.093 1266.64 200.093C1261.04 200.093 1253.24 200.093 1243.24 200.093C1233.24 200.093 1222.04 200.093 1209.64 200.093C1197.24 200.093 1184.44 200.093 1171.24 200.093C1158.04 200.093 1145.44 200.093 1133.44 200.093V174.893H1282.84ZM1201.24 174.893V594.893H1111.24V174.893H1201.24ZM1113.04 551.093V594.893H1065.04V588.893C1065.04 588.893 1066.24 588.893 1068.64 588.893C1071.44 588.893 1072.84 588.893 1072.84 588.893C1083.24 588.893 1092.04 585.293 1099.24 578.093C1106.84 570.493 1110.84 561.493 1111.24 551.093H1113.04ZM1113.04 218.693H1111.24C1111.24 208.293 1107.44 199.493 1099.84 192.293C1092.24 184.693 1083.24 180.893 1072.84 180.893C1072.84 180.893 1071.64 180.893 1069.24 180.893C1066.84 180.893 1065.64 180.893 1065.64 180.893L1065.04 174.893H1113.04V218.693Z" fill="white"/>
<path d="M2460.52 0.75H1896.48C1847.29 0.75 1807.42 40.6222 1807.42 89.8071V653.836C1807.42 703.021 1847.29 742.893 1896.48 742.893H2460.52C2509.71 742.893 2549.58 703.021 2549.58 653.836V89.8071C2549.58 40.6222 2509.71 0.75 2460.52 0.75Z" fill="url(#paint1_linear_4_99)" stroke="#3F4D61" stroke-width="1.5"/>
<path d="M2361.16 158.493L2365.96 223.893L2187.76 532.893C2187.76 532.893 2185.76 536.493 2181.76 543.693C2177.76 550.493 2173.76 558.893 2169.76 568.893C2166.16 578.893 2164.36 588.893 2164.36 598.893H2158.36L2134.96 546.693L2361.16 158.493ZM1954.36 543.093V586.893H1887.76V580.893C1888.16 580.893 1889.96 580.893 1893.16 580.893C1895.96 580.893 1897.36 580.893 1897.36 580.893C1908.16 580.893 1917.76 577.693 1926.16 571.293C1934.56 564.493 1939.56 555.093 1941.16 543.093H1954.36ZM1980.76 552.693C1980.76 553.093 1980.76 553.493 1980.76 553.893C1980.76 554.293 1980.76 554.893 1980.76 555.693C1980.76 562.093 1982.96 568.093 1987.36 573.693C1992.16 578.893 1997.76 581.493 2004.16 581.493H2013.16V586.893H1976.56V552.693H1980.76ZM1990.96 158.493H1996.36L2017.36 218.493L1977.16 586.893H1935.16L1990.96 158.493ZM1996.36 158.493L2192.56 480.693L2158.36 598.893L1980.76 300.693L1996.36 158.493ZM2366.56 158.493L2423.56 586.893H2326.96L2296.96 310.893L2361.16 158.493H2366.56ZM2404.96 543.093H2417.56C2419.56 555.093 2424.76 564.493 2433.16 571.293C2441.56 577.693 2450.96 580.893 2461.36 580.893C2461.36 580.893 2462.96 580.893 2466.16 580.893C2469.36 580.893 2470.96 580.893 2470.96 580.893V586.893H2404.96V543.093ZM2323.36 552.693H2327.56V586.893H2290.96V581.493H2299.96C2306.76 581.493 2312.36 578.893 2316.76 573.693C2321.16 568.093 2323.36 562.093 2323.36 555.693C2323.36 554.893 2323.36 554.293 2323.36 553.893C2323.36 553.493 2323.36 553.093 2323.36 552.693Z" fill="white"/>
<path d="M3351.12 0.75H2787.08C2737.89 0.75 2698.02 40.6222 2698.02 89.8071V653.836C2698.02 703.021 2737.89 742.893 2787.08 742.893H3351.12C3400.31 742.893 3440.18 703.021 3440.18 653.836V89.8071C3440.18 40.6222 3400.31 0.75 3351.12 0.75Z" fill="url(#paint2_linear_4_99)" stroke="#204CAC" stroke-width="1.5"/>
<path d="M3027.25 174.893H3099.25C3133.65 174.893 3161.45 179.893 3182.65 189.893C3204.25 199.893 3220.25 213.693 3230.65 231.293C3241.45 248.493 3247.25 268.093 3248.05 290.093C3248.85 310.493 3245.45 329.093 3237.85 345.893C3230.25 362.693 3219.85 376.693 3206.65 387.893C3193.45 399.093 3178.25 407.293 3161.05 412.493C3144.25 417.293 3126.65 418.493 3108.25 416.093C3090.25 413.293 3072.65 406.293 3055.45 395.093V389.093C3055.45 389.093 3057.85 389.093 3062.65 389.093C3067.85 389.093 3074.25 388.293 3081.85 386.693C3089.85 385.093 3098.05 382.093 3106.45 377.693C3115.25 373.293 3123.45 366.493 3131.05 357.293C3138.65 348.093 3144.45 335.893 3148.45 320.693C3150.05 315.493 3151.05 309.693 3151.45 303.293C3152.25 296.493 3152.45 290.293 3152.05 284.693C3151.65 259.093 3144.65 238.693 3131.05 223.493C3117.85 207.893 3099.05 200.093 3074.65 200.093H3033.25C3033.25 200.093 3032.65 198.093 3031.45 194.093C3030.65 189.693 3029.65 185.493 3028.45 181.493C3027.65 177.093 3027.25 174.893 3027.25 174.893ZM3035.05 174.893V594.893H2945.05V174.893H3035.05ZM2946.85 551.093V594.893H2898.85V588.893C2899.25 588.893 2900.45 588.893 2902.45 588.893C2904.85 588.893 2906.25 588.893 2906.65 588.893C2917.05 588.893 2925.85 585.293 2933.05 578.093C2940.65 570.493 2944.65 561.493 2945.05 551.093H2946.85ZM2946.85 218.693H2945.05C2945.05 208.293 2941.25 199.493 2933.65 192.293C2926.05 184.693 2917.05 180.893 2906.65 180.893C2906.25 180.893 2905.05 180.893 2903.05 180.893C2901.05 180.893 2899.85 180.893 2899.45 180.893L2898.85 174.893H2946.85V218.693ZM3033.25 551.093H3035.05C3035.45 561.493 3039.25 570.493 3046.45 578.093C3054.05 585.293 3063.05 588.893 3073.45 588.893C3073.85 588.893 3075.05 588.893 3077.05 588.893C3079.45 588.893 3080.85 588.893 3081.25 588.893V594.893H3033.25V551.093Z" fill="white"/>
<path d="M3651.7 965.536H705.299C699.151 965.536 694.167 970.52 694.167 976.668C694.167 982.816 699.151 987.8 705.299 987.8H3651.7C3657.85 987.8 3662.83 982.816 3662.83 976.668C3662.83 970.52 3657.85 965.536 3651.7 965.536Z" fill="url(#paint3_linear_4_99)"/>
<path d="M598.789 1474.89H508.554V1220.35H599.534C625.138 1220.35 647.179 1225.44 665.657 1235.63C684.134 1245.74 698.345 1260.29 708.288 1279.26C718.314 1298.24 723.327 1320.94 723.327 1347.37C723.327 1373.89 718.314 1396.67 708.288 1415.73C698.345 1434.79 684.051 1449.41 665.408 1459.6C646.847 1469.8 624.641 1474.89 598.789 1474.89ZM562.372 1428.78H596.551C612.46 1428.78 625.842 1425.96 636.697 1420.33C647.635 1414.61 655.838 1405.79 661.306 1393.86C666.858 1381.84 669.634 1366.35 669.634 1347.37C669.634 1328.56 666.858 1313.19 661.306 1301.26C655.838 1289.33 647.676 1280.54 636.821 1274.91C625.967 1269.28 612.585 1266.46 596.676 1266.46H562.372V1428.78ZM792.712 1474.89H735.041L822.914 1220.35H892.268L980.016 1474.89H922.346L858.585 1278.51H856.597L792.712 1474.89ZM789.107 1374.84H925.329V1416.85H789.107V1374.84ZM1223.56 1220.35V1474.89H1177.08L1066.34 1314.68H1064.47V1474.89H1010.65V1220.35H1057.88L1167.76 1380.43H1169.99V1220.35H1223.56ZM1321.84 1220.35V1474.89H1268.03V1220.35H1321.84ZM1410 1474.89H1352.33L1440.2 1220.35H1509.55L1597.3 1474.89H1539.63L1475.87 1278.51H1473.88L1410 1474.89ZM1406.39 1374.84H1542.61V1416.85H1406.39V1374.84ZM1708.94 1220.35H1775.32L1845.42 1391.37H1848.4L1918.5 1220.35H1984.87V1474.89H1932.67V1309.21H1930.55L1864.68 1473.65H1829.13L1763.26 1308.59H1761.15V1474.89H1708.94V1220.35ZM2186.44 1220.35H2240.25V1385.65C2240.25 1404.21 2235.82 1420.45 2226.95 1434.37C2218.17 1448.29 2205.87 1459.15 2190.04 1466.94C2174.21 1474.64 2155.78 1478.5 2134.73 1478.5C2113.6 1478.5 2095.12 1474.64 2079.3 1466.94C2063.47 1459.15 2051.17 1448.29 2042.38 1434.37C2033.6 1420.45 2029.21 1404.21 2029.21 1385.65V1220.35H2083.03V1381.05C2083.03 1390.75 2085.14 1399.37 2089.36 1406.91C2093.67 1414.45 2099.72 1420.37 2107.51 1424.68C2115.3 1428.99 2124.37 1431.14 2134.73 1431.14C2145.17 1431.14 2154.24 1428.99 2161.95 1424.68C2169.74 1420.37 2175.75 1414.45 2179.97 1406.91C2184.28 1399.37 2186.44 1390.75 2186.44 1381.05V1220.35ZM2284.53 1474.89V1220.35H2338.35V1430.52H2447.47V1474.89H2284.53ZM2441.63 1264.72V1220.35H2650.69V1264.72H2572.76V1474.89H2519.56V1264.72H2441.63ZM2738.93 1220.35V1474.89H2685.12V1220.35H2738.93ZM2864.22 1474.89V1220.35H2964.64C2983.95 1220.35 3000.4 1224.03 3013.99 1231.41C3027.58 1238.7 3037.93 1248.85 3045.06 1261.86C3052.27 1274.79 3055.87 1289.7 3055.87 1306.6C3055.87 1323.51 3052.23 1338.42 3044.94 1351.35C3037.64 1364.27 3027.08 1374.34 3013.24 1381.55C2999.49 1388.76 2982.83 1392.36 2963.28 1392.36H2899.27V1349.24H2954.58C2964.93 1349.24 2973.47 1347.45 2980.18 1343.89C2986.98 1340.25 2992.03 1335.23 2995.34 1328.85C2998.74 1322.39 3000.44 1314.97 3000.44 1306.6C3000.44 1298.15 2998.74 1290.78 2995.34 1284.48C2992.03 1278.1 2986.98 1273.17 2980.18 1269.69C2973.39 1266.13 2964.77 1264.35 2954.33 1264.35H2918.04V1474.89H2864.22ZM3090.83 1474.89V1220.35H3191.26C3210.48 1220.35 3226.89 1223.79 3240.47 1230.66C3254.15 1237.46 3264.55 1247.11 3271.67 1259.62C3278.88 1272.05 3282.48 1286.68 3282.48 1303.5C3282.48 1320.4 3278.84 1334.94 3271.55 1347.12C3264.26 1359.22 3253.69 1368.5 3239.85 1374.96C3226.1 1381.43 3209.44 1384.66 3189.89 1384.66H3122.65V1341.41H3181.19C3191.46 1341.41 3200 1340 3206.79 1337.18C3213.59 1334.36 3218.64 1330.14 3221.96 1324.5C3225.35 1318.87 3227.05 1311.87 3227.05 1303.5C3227.05 1295.05 3225.35 1287.92 3221.96 1282.12C3218.64 1276.32 3213.55 1271.93 3206.67 1268.94C3199.87 1265.88 3191.3 1264.35 3180.94 1264.35H3144.65V1474.89H3090.83ZM3228.29 1359.05L3291.56 1474.89H3232.15L3170.25 1359.05H3228.29ZM3374.33 1220.35V1474.89H3320.52V1220.35H3374.33ZM3418.61 1220.35H3484.98L3555.08 1391.37H3558.07L3628.17 1220.35H3694.54V1474.89H3642.33V1309.21H3640.22L3574.35 1473.65H3538.8L3472.93 1308.59H3470.81V1474.89H3418.61V1220.35ZM3782.75 1474.89H3725.08L3812.95 1220.35H3882.31L3970.06 1474.89H3912.39L3848.62 1278.51H3846.64L3782.75 1474.89ZM3779.15 1374.84H3915.37V1416.85H3779.15V1374.84Z" fill="white"/>
<defs>
<linearGradient id="paint0_linear_4_99" x1="916.816" y1="0.75" x2="1658.96" y2="742.917" gradientUnits="userSpaceOnUse">
<stop stop-color="#2563EB"/>
<stop offset="1" stop-color="#1E3A8A"/>
</linearGradient>
<linearGradient id="paint1_linear_4_99" x1="1807.42" y1="0.75" x2="2549.56" y2="742.917" gradientUnits="userSpaceOnUse">
<stop stop-color="#64748B"/>
<stop offset="1" stop-color="#1E293B"/>
</linearGradient>
<linearGradient id="paint2_linear_4_99" x1="2698.02" y1="0.75" x2="3440.16" y2="742.917" gradientUnits="userSpaceOnUse">
<stop stop-color="#2563EB"/>
<stop offset="1" stop-color="#1E3A8A"/>
</linearGradient>
<linearGradient id="paint3_linear_4_99" x1="694.167" y1="965.536" x2="3662.83" y2="965.536" gradientUnits="userSpaceOnUse">
<stop stop-color="#3B82F6" stop-opacity="0"/>
<stop offset="0.5" stop-color="#3B82F6" stop-opacity="0.6"/>
<stop offset="1" stop-color="#3B82F6" stop-opacity="0"/>
</linearGradient>
</defs>
</svg>
