<svg xmlns="http://www.w3.org/2000/svg" xmlns:xlink="http://www.w3.org/1999/xlink" width="500" zoomAndPan="magnify" viewBox="0 0 375 374.999991" height="500" preserveAspectRatio="xMidYMid meet" version="1.0"><defs><g/><clipPath id="ee58c64956"><path d="M 31.738281 105 L 130.953125 105 L 130.953125 204.214844 L 31.738281 204.214844 Z M 31.738281 105 " clip-rule="nonzero"/></clipPath><clipPath id="f33b265400"><path d="M 0.738281 0 L 99.953125 0 L 99.953125 99.214844 L 0.738281 99.214844 Z M 0.738281 0 " clip-rule="nonzero"/></clipPath><clipPath id="7a608d8e5e"><rect x="0" width="100" y="0" height="100"/></clipPath><clipPath id="60fa87d2b5"><path d="M 137.925781 105 L 237.140625 105 L 237.140625 204.214844 L 137.925781 204.214844 Z M 137.925781 105 " clip-rule="nonzero"/></clipPath><clipPath id="40e5e5eedb"><path d="M 0.925781 0 L 100.140625 0 L 100.140625 99.214844 L 0.925781 99.214844 Z M 0.925781 0 " clip-rule="nonzero"/></clipPath><clipPath id="4753254011"><rect x="0" width="101" y="0" height="100"/></clipPath><clipPath id="01bccca9f5"><path d="M 244.046875 105 L 343.261719 105 L 343.261719 204.214844 L 244.046875 204.214844 Z M 244.046875 105 " clip-rule="nonzero"/></clipPath><clipPath id="607b75c195"><path d="M 0.046875 0 L 99.261719 0 L 99.261719 99.214844 L 0.046875 99.214844 Z M 0.046875 0 " clip-rule="nonzero"/></clipPath><clipPath id="0e1c4e60e2"><rect x="0" width="100" y="0" height="100"/></clipPath><clipPath id="7495ca03ac"><path d="M 31.738281 211.042969 L 343.261719 211.042969 L 343.261719 221.882812 L 31.738281 221.882812 Z M 31.738281 211.042969 " clip-rule="nonzero"/></clipPath><clipPath id="a7877ad6b1"><path d="M 0.738281 0.0429688 L 312.261719 0.0429688 L 312.261719 10.882812 L 0.738281 10.882812 Z M 0.738281 0.0429688 " clip-rule="nonzero"/></clipPath><clipPath id="ff18d9af50"><rect x="0" width="313" y="0" height="11"/></clipPath><clipPath id="b4cb2c18e8"><rect x="0" width="75" y="0" height="121"/></clipPath><clipPath id="77880c979f"><rect x="0" width="60" y="0" height="120"/></clipPath><clipPath id="610cec53ac"><path d="M 0.078125 23 L 87 23 L 87 89 L 0.078125 89 Z M 0.078125 23 " clip-rule="nonzero"/></clipPath><clipPath id="4de3c9fbcb"><rect x="0" width="88" y="0" height="120"/></clipPath><clipPath id="8ae07fd70e"><rect x="0" width="325" y="0" height="35"/></clipPath></defs><g clip-path="url(#ee58c64956)"><g transform="matrix(1, 0, 0, 1, 31, 105)"><g clip-path="url(#7a608d8e5e)"><g clip-path="url(#f33b265400)"><path fill="#282973" d="M 0.738281 0 L 99.953125 0 L 99.953125 99.214844 L 0.738281 99.214844 Z M 0.738281 0 " fill-opacity="1" fill-rule="nonzero"/></g></g></g></g><g clip-path="url(#60fa87d2b5)"><g transform="matrix(1, 0, 0, 1, 137, 105)"><g clip-path="url(#4753254011)"><g clip-path="url(#40e5e5eedb)"><path fill="#545454" d="M 0.925781 0 L 100.140625 0 L 100.140625 99.214844 L 0.925781 99.214844 Z M 0.925781 0 " fill-opacity="1" fill-rule="nonzero"/></g></g></g></g><g clip-path="url(#01bccca9f5)"><g transform="matrix(1, 0, 0, 1, 244, 105)"><g clip-path="url(#0e1c4e60e2)"><g clip-path="url(#607b75c195)"><path fill="#282973" d="M 0.046875 0 L 99.261719 0 L 99.261719 99.214844 L 0.046875 99.214844 Z M 0.046875 0 " fill-opacity="1" fill-rule="nonzero"/></g></g></g></g><g clip-path="url(#7495ca03ac)"><g transform="matrix(1, 0, 0, 1, 31, 211)"><g clip-path="url(#ff18d9af50)"><g clip-path="url(#a7877ad6b1)"><path fill="#545454" d="M 0.738281 0.0429688 L 312.261719 0.0429688 L 312.261719 10.882812 L 0.738281 10.882812 Z M 0.738281 0.0429688 " fill-opacity="1" fill-rule="nonzero"/></g></g></g></g><g transform="matrix(1, 0, 0, 1, 44, 97)"><g clip-path="url(#b4cb2c18e8)"><g fill="#ffffff" fill-opacity="1"><g transform="translate(0.551159, 86.246655)"><g><path d="M 35.921875 -62.09375 C 46.390625 -62.09375 54.664062 -59.3125 60.75 -53.75 C 66.84375 -48.195312 69.890625 -40.628906 69.890625 -31.046875 C 69.890625 -21.460938 66.84375 -13.890625 60.75 -8.328125 C 54.664062 -2.773438 46.390625 0 35.921875 0 L 3.71875 0 L 3.71875 -0.890625 L 4.875 -0.890625 C 6.414062 -0.890625 7.734375 -1.4375 8.828125 -2.53125 C 9.921875 -3.625 10.5 -4.9375 10.5625 -6.46875 L 10.5625 -56.15625 C 10.5625 -57.570312 9.984375 -58.765625 8.828125 -59.734375 C 7.671875 -60.710938 6.351562 -61.203125 4.875 -61.203125 L 3.71875 -61.203125 L 3.71875 -62.09375 Z M 34.765625 -3.8125 C 39.023438 -3.8125 42.707031 -4.90625 45.8125 -7.09375 C 48.914062 -9.28125 51.296875 -12.425781 52.953125 -16.53125 C 54.609375 -20.644531 55.4375 -25.125 55.4375 -29.96875 C 55.4375 -34.820312 54.945312 -38.945312 53.96875 -42.34375 C 53 -45.75 51.625 -48.632812 49.84375 -51 C 46.1875 -55.90625 41.160156 -58.359375 34.765625 -58.359375 L 23.859375 -58.359375 L 23.859375 -3.8125 Z M 34.765625 -3.8125 "/></g></g></g></g></g><g transform="matrix(1, 0, 0, 1, 264, 100)"><g clip-path="url(#77880c979f)"><g fill="#ffffff" fill-opacity="1"><g transform="translate(0.601462, 85.647878)"><g><path d="M 55.609375 -44.359375 C 55.609375 -41.628906 55.078125 -39.054688 54.015625 -36.640625 C 52.003906 -31.960938 48.28125 -28.765625 42.84375 -27.046875 C 41.25 -26.515625 39.769531 -26.25 38.40625 -26.25 C 34.207031 -26.25 30.453125 -27.34375 27.140625 -29.53125 L 27.140625 -30.421875 C 31.578125 -30.304688 35.15625 -31.753906 37.875 -34.765625 C 40.238281 -37.367188 41.421875 -40.769531 41.421875 -44.96875 C 41.421875 -49.226562 40.398438 -52.523438 38.359375 -54.859375 C 36.316406 -57.191406 33.554688 -58.359375 30.078125 -58.359375 L 24.125 -58.359375 L 24.125 -6.46875 C 24.125 -4.9375 24.6875 -3.625 25.8125 -2.53125 C 26.9375 -1.4375 28.265625 -0.890625 29.796875 -0.890625 L 30.953125 -0.890625 L 30.953125 0 L 3.984375 0 L 3.984375 -0.890625 L 5.140625 -0.890625 C 6.679688 -0.890625 8 -1.4375 9.09375 -2.53125 C 10.1875 -3.625 10.765625 -4.9375 10.828125 -6.46875 L 10.828125 -56.0625 C 10.828125 -57.539062 10.265625 -58.765625 9.140625 -59.734375 C 8.015625 -60.710938 6.679688 -61.203125 5.140625 -61.203125 L 3.984375 -61.203125 L 3.984375 -62.09375 L 33.625 -62.09375 C 40.832031 -62.09375 46.269531 -60.554688 49.9375 -57.484375 C 53.71875 -54.222656 55.609375 -49.847656 55.609375 -44.359375 Z M 55.609375 -44.359375 "/></g></g></g></g></g><g transform="matrix(1, 0, 0, 1, 142, 99)"><g clip-path="url(#4de3c9fbcb)"><g clip-path="url(#610cec53ac)"><g fill="#ffffff" fill-opacity="1"><g transform="translate(1.571001, 86.382299)"><g><path d="M 84 -0.890625 L 85.421875 -0.890625 L 85.421875 0 L 58.8125 0 L 58.8125 -0.796875 L 60.140625 -0.796875 C 61.148438 -0.859375 62.007812 -1.269531 62.71875 -2.03125 C 63.425781 -2.800781 63.71875 -3.660156 63.59375 -4.609375 L 60.140625 -36.8125 L 43.46875 -8.078125 C 41.28125 -4.410156 40.15625 -1.125 40.09375 1.78125 L 39.203125 1.78125 L 16.40625 -36.546875 L 12.953125 -4.609375 C 12.828125 -3.660156 13.117188 -2.785156 13.828125 -1.984375 C 14.546875 -1.191406 15.40625 -0.796875 16.40625 -0.796875 L 17.734375 -0.796875 L 17.734375 0 L -0.796875 0 L -0.796875 -0.890625 L 0.625 -0.890625 C 2.28125 -0.890625 3.710938 -1.390625 4.921875 -2.390625 C 6.128906 -3.398438 6.851562 -4.757812 7.09375 -6.46875 L 14.453125 -63.328125 L 15.25 -63.328125 L 42.75 -18.09375 L 69.1875 -63.328125 L 69.984375 -63.328125 L 77.53125 -6.46875 C 77.820312 -4.757812 78.570312 -3.398438 79.78125 -2.390625 C 81 -1.390625 82.40625 -0.890625 84 -0.890625 Z M 84 -0.890625 "/></g></g></g></g></g></g><g transform="matrix(1, 0, 0, 1, 27, 227)"><g clip-path="url(#8ae07fd70e)"><g fill="#000000" fill-opacity="1"><g transform="translate(1.274737, 25.143803)"><g><path d="M 10.15625 -17.546875 C 13.113281 -17.546875 15.453125 -16.757812 17.171875 -15.1875 C 18.898438 -13.625 19.765625 -11.488281 19.765625 -8.78125 C 19.765625 -6.070312 18.898438 -3.929688 17.171875 -2.359375 C 15.453125 -0.785156 13.113281 0 10.15625 0 L 1.046875 0 L 1.046875 -0.25 L 1.375 -0.25 C 1.8125 -0.25 2.179688 -0.398438 2.484375 -0.703125 C 2.796875 -1.015625 2.960938 -1.390625 2.984375 -1.828125 L 2.984375 -15.875 C 2.984375 -16.269531 2.816406 -16.601562 2.484375 -16.875 C 2.160156 -17.15625 1.789062 -17.296875 1.375 -17.296875 L 1.046875 -17.296875 L 1.046875 -17.546875 Z M 9.828125 -1.078125 C 11.035156 -1.078125 12.078125 -1.382812 12.953125 -2 C 13.828125 -2.625 14.5 -3.515625 14.96875 -4.671875 C 15.4375 -5.835938 15.671875 -7.101562 15.671875 -8.46875 C 15.671875 -9.84375 15.53125 -11.007812 15.25 -11.96875 C 14.976562 -12.9375 14.59375 -13.753906 14.09375 -14.421875 C 13.050781 -15.804688 11.628906 -16.5 9.828125 -16.5 L 6.75 -16.5 L 6.75 -1.078125 Z M 9.828125 -1.078125 "/></g></g></g><g fill="#000000" fill-opacity="1"><g transform="translate(26.152303, 25.143803)"><g><path d="M 16.703125 -0.25 L 16.90625 -0.25 L 16.90625 0 L 9.53125 0 L 9.53125 -0.25 L 9.734375 -0.25 C 10.066406 -0.25 10.304688 -0.347656 10.453125 -0.546875 C 10.609375 -0.753906 10.6875 -0.941406 10.6875 -1.109375 C 10.6875 -1.273438 10.65625 -1.445312 10.59375 -1.625 L 9.609375 -3.9375 L 4.296875 -3.9375 L 3.296875 -1.609375 C 3.222656 -1.441406 3.1875 -1.269531 3.1875 -1.09375 C 3.1875 -0.914062 3.265625 -0.726562 3.421875 -0.53125 C 3.585938 -0.34375 3.835938 -0.25 4.171875 -0.25 L 4.375 -0.25 L 4.375 0 L -0.640625 0 L -0.640625 -0.25 L -0.4375 -0.25 C -0.09375 -0.25 0.253906 -0.359375 0.609375 -0.578125 C 0.960938 -0.796875 1.242188 -1.125 1.453125 -1.5625 L 6.65625 -12.6875 C 7.382812 -14.34375 7.769531 -15.363281 7.8125 -15.75 L 8.03125 -15.75 L 14.75 -1.65625 C 14.96875 -1.164062 15.253906 -0.804688 15.609375 -0.578125 C 15.972656 -0.359375 16.335938 -0.25 16.703125 -0.25 Z M 4.71875 -4.921875 L 9.1875 -4.921875 L 6.984375 -10.15625 Z M 4.71875 -4.921875 "/></g></g></g><g fill="#000000" fill-opacity="1"><g transform="translate(46.415751, 25.143803)"><g><path d="M 11.984375 -15.046875 L 19.03125 -15.046875 L 19.03125 -14.796875 L 18.609375 -14.796875 C 18.222656 -14.796875 17.898438 -14.675781 17.640625 -14.4375 C 17.378906 -14.207031 17.242188 -13.910156 17.234375 -13.546875 L 17.234375 -2.578125 C 17.234375 -1.546875 17.296875 -0.695312 17.421875 -0.03125 L 17.484375 0.328125 L 17.25 0.328125 L 5.75 -9.828125 L 5.75 -1.53125 C 5.757812 -1.164062 5.894531 -0.859375 6.15625 -0.609375 C 6.414062 -0.367188 6.738281 -0.25 7.125 -0.25 L 7.546875 -0.25 L 7.546875 0 L 0.53125 0 L 0.53125 -0.25 L 0.921875 -0.25 C 1.304688 -0.25 1.632812 -0.367188 1.90625 -0.609375 C 2.175781 -0.859375 2.3125 -1.164062 2.3125 -1.53125 L 2.3125 -12.5625 C 2.3125 -13.5625 2.242188 -14.390625 2.109375 -15.046875 L 2.0625 -15.390625 L 2.28125 -15.375 L 13.765625 -5.265625 L 13.765625 -13.515625 C 13.765625 -13.878906 13.632812 -14.179688 13.375 -14.421875 C 13.113281 -14.671875 12.789062 -14.796875 12.40625 -14.796875 L 11.984375 -14.796875 Z M 11.984375 -15.046875 "/></g></g></g><g fill="#000000" fill-opacity="1"><g transform="translate(70.064559, 25.143803)"><g><path d="M 0.859375 -0.25 L 1.15625 -0.25 C 1.550781 -0.25 1.890625 -0.378906 2.171875 -0.640625 C 2.460938 -0.898438 2.609375 -1.210938 2.609375 -1.578125 L 2.609375 -13.46875 C 2.609375 -13.832031 2.460938 -14.144531 2.171875 -14.40625 C 1.890625 -14.664062 1.550781 -14.796875 1.15625 -14.796875 L 0.859375 -14.796875 L 0.859375 -15.046875 L 7.96875 -15.046875 L 7.96875 -14.796875 L 7.671875 -14.796875 C 7.285156 -14.796875 6.953125 -14.671875 6.671875 -14.421875 C 6.390625 -14.171875 6.238281 -13.859375 6.21875 -13.484375 L 6.21875 -1.578125 C 6.238281 -1.191406 6.390625 -0.875 6.671875 -0.625 C 6.953125 -0.375 7.285156 -0.25 7.671875 -0.25 L 7.96875 -0.25 L 7.96875 0 L 0.859375 0 Z M 0.859375 -0.25 "/></g></g></g><g fill="#000000" fill-opacity="1"><g transform="translate(83.005622, 25.143803)"><g><path d="M 16.703125 -0.25 L 16.90625 -0.25 L 16.90625 0 L 9.53125 0 L 9.53125 -0.25 L 9.734375 -0.25 C 10.066406 -0.25 10.304688 -0.347656 10.453125 -0.546875 C 10.609375 -0.753906 10.6875 -0.941406 10.6875 -1.109375 C 10.6875 -1.273438 10.65625 -1.445312 10.59375 -1.625 L 9.609375 -3.9375 L 4.296875 -3.9375 L 3.296875 -1.609375 C 3.222656 -1.441406 3.1875 -1.269531 3.1875 -1.09375 C 3.1875 -0.914062 3.265625 -0.726562 3.421875 -0.53125 C 3.585938 -0.34375 3.835938 -0.25 4.171875 -0.25 L 4.375 -0.25 L 4.375 0 L -0.640625 0 L -0.640625 -0.25 L -0.4375 -0.25 C -0.09375 -0.25 0.253906 -0.359375 0.609375 -0.578125 C 0.960938 -0.796875 1.242188 -1.125 1.453125 -1.5625 L 6.65625 -12.6875 C 7.382812 -14.34375 7.769531 -15.363281 7.8125 -15.75 L 8.03125 -15.75 L 14.75 -1.65625 C 14.96875 -1.164062 15.253906 -0.804688 15.609375 -0.578125 C 15.972656 -0.359375 16.335938 -0.25 16.703125 -0.25 Z M 4.71875 -4.921875 L 9.1875 -4.921875 L 6.984375 -10.15625 Z M 4.71875 -4.921875 "/></g></g></g><g fill="#000000" fill-opacity="1"><g transform="translate(103.269071, 25.143803)"><g/></g></g><g fill="#000000" fill-opacity="1"><g transform="translate(113.652301, 25.143803)"><g><path d="M 23.75 -0.25 L 24.15625 -0.25 L 24.15625 0 L 16.625 0 L 16.625 -0.21875 L 17 -0.21875 C 17.28125 -0.238281 17.519531 -0.359375 17.71875 -0.578125 C 17.925781 -0.796875 18.015625 -1.035156 17.984375 -1.296875 L 17 -10.40625 L 12.28125 -2.28125 C 11.664062 -1.25 11.347656 -0.320312 11.328125 0.5 L 11.078125 0.5 L 4.640625 -10.328125 L 3.65625 -1.296875 C 3.625 -1.035156 3.707031 -0.789062 3.90625 -0.5625 C 4.113281 -0.332031 4.359375 -0.21875 4.640625 -0.21875 L 5.015625 -0.21875 L 5.015625 0 L -0.21875 0 L -0.21875 -0.25 L 0.171875 -0.25 C 0.640625 -0.25 1.046875 -0.390625 1.390625 -0.671875 C 1.734375 -0.960938 1.9375 -1.347656 2 -1.828125 L 4.09375 -17.90625 L 4.3125 -17.90625 L 12.09375 -5.109375 L 19.5625 -17.90625 L 19.78125 -17.90625 L 21.921875 -1.828125 C 22.003906 -1.347656 22.21875 -0.960938 22.5625 -0.671875 C 22.90625 -0.390625 23.300781 -0.25 23.75 -0.25 Z M 23.75 -0.25 "/></g></g></g><g fill="#000000" fill-opacity="1"><g transform="translate(141.664444, 25.143803)"><g><path d="M 17.171875 -14.796875 L 16.828125 -14.796875 C 16.503906 -14.796875 16.234375 -14.695312 16.015625 -14.5 C 15.804688 -14.3125 15.691406 -14.066406 15.671875 -13.765625 L 15.671875 -5.46875 C 15.671875 -3.664062 15.117188 -2.25 14.015625 -1.21875 C 12.910156 -0.1875 11.265625 0.328125 9.078125 0.328125 C 6.898438 0.328125 5.207031 -0.171875 4 -1.171875 C 2.789062 -2.179688 2.1875 -3.597656 2.1875 -5.421875 L 2.1875 -13.75 C 2.1875 -14.039062 2.070312 -14.285156 1.84375 -14.484375 C 1.613281 -14.691406 1.34375 -14.796875 1.03125 -14.796875 L 0.671875 -14.796875 L 0.671875 -15.046875 L 7.265625 -15.046875 L 7.265625 -14.796875 L 6.921875 -14.796875 C 6.597656 -14.796875 6.328125 -14.691406 6.109375 -14.484375 C 5.898438 -14.285156 5.796875 -14.039062 5.796875 -13.75 L 5.796875 -5.59375 C 5.796875 -4.050781 6.148438 -2.84375 6.859375 -1.96875 C 7.566406 -1.101562 8.5625 -0.671875 9.84375 -0.671875 C 11.132812 -0.671875 12.148438 -1.082031 12.890625 -1.90625 C 13.640625 -2.726562 14.015625 -3.863281 14.015625 -5.3125 L 14.015625 -13.75 C 14.003906 -14.0625 13.890625 -14.3125 13.671875 -14.5 C 13.453125 -14.695312 13.179688 -14.796875 12.859375 -14.796875 L 12.53125 -14.796875 L 12.53125 -15.046875 L 17.171875 -15.046875 Z M 17.171875 -14.796875 "/></g></g></g><g fill="#000000" fill-opacity="1"><g transform="translate(163.432497, 25.143803)"><g><path d="M 0.859375 0 L 0.859375 -0.25 L 1.15625 -0.25 C 1.539062 -0.25 1.859375 -0.375 2.109375 -0.625 C 2.367188 -0.875 2.5 -1.1875 2.5 -1.5625 L 2.5 -13.46875 C 2.5 -13.832031 2.363281 -14.144531 2.09375 -14.40625 C 1.832031 -14.664062 1.519531 -14.796875 1.15625 -14.796875 L 0.859375 -14.796875 L 0.859375 -15.046875 L 7.828125 -15.046875 L 7.828125 -14.796875 L 7.515625 -14.796875 C 7.140625 -14.796875 6.816406 -14.671875 6.546875 -14.421875 C 6.273438 -14.171875 6.140625 -13.851562 6.140625 -13.46875 L 6.140625 -1 L 9.15625 -1 C 10.1875 -1.019531 11.0625 -1.34375 11.78125 -1.96875 C 12.5 -2.59375 13.023438 -3.472656 13.359375 -4.609375 L 13.640625 -4.609375 L 12.671875 0 Z M 0.859375 0 "/></g></g></g><g fill="#000000" fill-opacity="1"><g transform="translate(181.288589, 25.143803)"><g><path d="M 14.515625 -11.484375 L 14.515625 -11.71875 C 14.515625 -12.4375 14.3125 -13.003906 13.90625 -13.421875 C 13.507812 -13.835938 12.953125 -14.050781 12.234375 -14.0625 L 9.328125 -14.0625 L 9.328125 -1.5625 C 9.347656 -1.1875 9.488281 -0.875 9.75 -0.625 C 10.019531 -0.375 10.335938 -0.25 10.703125 -0.25 L 10.984375 -0.25 L 10.984375 0 L 4.0625 0 L 4.0625 -0.25 L 4.3125 -0.25 C 4.695312 -0.25 5.019531 -0.375 5.28125 -0.625 C 5.550781 -0.875 5.6875 -1.191406 5.6875 -1.578125 L 5.6875 -14.0625 L 2.8125 -14.0625 C 2.070312 -14.050781 1.5 -13.835938 1.09375 -13.421875 C 0.695312 -13.003906 0.5 -12.4375 0.5 -11.71875 L 0.5 -11.484375 L 0.25 -11.484375 L 0.25 -15.453125 C 0.488281 -15.367188 0.878906 -15.285156 1.421875 -15.203125 C 1.960938 -15.117188 2.453125 -15.078125 2.890625 -15.078125 L 12.140625 -15.078125 C 12.867188 -15.078125 13.472656 -15.128906 13.953125 -15.234375 C 14.429688 -15.335938 14.703125 -15.410156 14.765625 -15.453125 L 14.765625 -11.484375 Z M 14.515625 -11.484375 "/></g></g></g><g fill="#000000" fill-opacity="1"><g transform="translate(200.423584, 25.143803)"><g><path d="M 0.859375 -0.25 L 1.15625 -0.25 C 1.550781 -0.25 1.890625 -0.378906 2.171875 -0.640625 C 2.460938 -0.898438 2.609375 -1.210938 2.609375 -1.578125 L 2.609375 -13.46875 C 2.609375 -13.832031 2.460938 -14.144531 2.171875 -14.40625 C 1.890625 -14.664062 1.550781 -14.796875 1.15625 -14.796875 L 0.859375 -14.796875 L 0.859375 -15.046875 L 7.96875 -15.046875 L 7.96875 -14.796875 L 7.671875 -14.796875 C 7.285156 -14.796875 6.953125 -14.671875 6.671875 -14.421875 C 6.390625 -14.171875 6.238281 -13.859375 6.21875 -13.484375 L 6.21875 -1.578125 C 6.238281 -1.191406 6.390625 -0.875 6.671875 -0.625 C 6.953125 -0.375 7.285156 -0.25 7.671875 -0.25 L 7.96875 -0.25 L 7.96875 0 L 0.859375 0 Z M 0.859375 -0.25 "/></g></g></g><g fill="#000000" fill-opacity="1"><g transform="translate(213.364648, 25.143803)"><g/></g></g><g fill="#000000" fill-opacity="1"><g transform="translate(223.747878, 25.143803)"><g><path d="M 15.71875 -12.53125 C 15.71875 -11.769531 15.566406 -11.046875 15.265625 -10.359375 C 14.703125 -9.035156 13.648438 -8.132812 12.109375 -7.65625 C 11.660156 -7.5 11.242188 -7.421875 10.859375 -7.421875 C 9.671875 -7.421875 8.609375 -7.726562 7.671875 -8.34375 L 7.671875 -8.609375 C 8.929688 -8.566406 9.941406 -8.972656 10.703125 -9.828125 C 11.378906 -10.566406 11.71875 -11.53125 11.71875 -12.71875 C 11.71875 -13.914062 11.425781 -14.84375 10.84375 -15.5 C 10.269531 -16.164062 9.488281 -16.5 8.5 -16.5 L 6.828125 -16.5 L 6.828125 -1.828125 C 6.828125 -1.390625 6.984375 -1.015625 7.296875 -0.703125 C 7.617188 -0.398438 7.992188 -0.25 8.421875 -0.25 L 8.75 -0.25 L 8.75 0 L 1.125 0 L 1.125 -0.25 L 1.453125 -0.25 C 1.890625 -0.25 2.257812 -0.398438 2.5625 -0.703125 C 2.875 -1.015625 3.039062 -1.390625 3.0625 -1.828125 L 3.0625 -15.84375 C 3.0625 -16.257812 2.898438 -16.601562 2.578125 -16.875 C 2.265625 -17.15625 1.890625 -17.296875 1.453125 -17.296875 L 1.125 -17.296875 L 1.125 -17.546875 L 9.5 -17.546875 C 11.539062 -17.546875 13.082031 -17.113281 14.125 -16.25 C 15.1875 -15.332031 15.71875 -14.09375 15.71875 -12.53125 Z M 15.71875 -12.53125 "/></g></g></g><g fill="#000000" fill-opacity="1"><g transform="translate(244.287173, 25.143803)"><g><path d="M 7.09375 -14.015625 L 6.296875 -14.015625 L 6.296875 -1.578125 C 6.296875 -1.179688 6.429688 -0.859375 6.703125 -0.609375 C 6.984375 -0.367188 7.300781 -0.25 7.65625 -0.25 L 7.921875 -0.25 L 7.921875 0 L 1.03125 0 L 1.03125 -0.25 L 1.328125 -0.25 C 1.691406 -0.25 2.003906 -0.375 2.265625 -0.625 C 2.523438 -0.875 2.65625 -1.1875 2.65625 -1.5625 L 2.65625 -13.484375 C 2.65625 -13.859375 2.523438 -14.171875 2.265625 -14.421875 C 2.003906 -14.671875 1.703125 -14.796875 1.359375 -14.796875 L 1.03125 -14.796875 L 1.03125 -15.046875 L 8.734375 -15.046875 C 10.234375 -15.046875 11.492188 -14.753906 12.515625 -14.171875 C 13.648438 -13.515625 14.21875 -12.4375 14.21875 -10.9375 C 14.21875 -9.96875 13.925781 -9.09375 13.34375 -8.3125 C 12.757812 -7.53125 11.890625 -7.054688 10.734375 -6.890625 C 11.179688 -6.742188 11.625 -6.460938 12.0625 -6.046875 C 12.507812 -5.628906 12.867188 -5.203125 13.140625 -4.765625 C 13.671875 -3.804688 14.226562 -2.929688 14.8125 -2.140625 C 15.40625 -1.347656 15.878906 -0.832031 16.234375 -0.59375 C 16.597656 -0.363281 17.035156 -0.25 17.546875 -0.25 L 17.546875 0 L 15.453125 0 C 14.054688 0 12.988281 -0.164062 12.25 -0.5 C 11.507812 -0.832031 10.84375 -1.46875 10.25 -2.40625 C 9.351562 -3.84375 8.796875 -4.976562 8.578125 -5.8125 C 8.378906 -6.320312 8.140625 -6.703125 7.859375 -6.953125 C 7.585938 -7.203125 7.328125 -7.34375 7.078125 -7.375 L 7.078125 -7.578125 L 7.703125 -7.578125 C 9.117188 -7.585938 9.988281 -8.421875 10.3125 -10.078125 C 10.375 -10.328125 10.40625 -10.546875 10.40625 -10.734375 C 10.40625 -10.921875 10.394531 -11.175781 10.375 -11.5 C 10.363281 -11.820312 10.257812 -12.1875 10.0625 -12.59375 C 9.875 -13.007812 9.628906 -13.304688 9.328125 -13.484375 C 8.804688 -13.804688 8.269531 -13.976562 7.71875 -14 C 7.539062 -14.007812 7.332031 -14.015625 7.09375 -14.015625 Z M 7.09375 -14.015625 "/></g></g></g><g fill="#000000" fill-opacity="1"><g transform="translate(264.876628, 25.143803)"><g><path d="M 0.859375 -0.25 L 1.15625 -0.25 C 1.550781 -0.25 1.890625 -0.378906 2.171875 -0.640625 C 2.460938 -0.898438 2.609375 -1.210938 2.609375 -1.578125 L 2.609375 -13.46875 C 2.609375 -13.832031 2.460938 -14.144531 2.171875 -14.40625 C 1.890625 -14.664062 1.550781 -14.796875 1.15625 -14.796875 L 0.859375 -14.796875 L 0.859375 -15.046875 L 7.96875 -15.046875 L 7.96875 -14.796875 L 7.671875 -14.796875 C 7.285156 -14.796875 6.953125 -14.671875 6.671875 -14.421875 C 6.390625 -14.171875 6.238281 -13.859375 6.21875 -13.484375 L 6.21875 -1.578125 C 6.238281 -1.191406 6.390625 -0.875 6.671875 -0.625 C 6.953125 -0.375 7.285156 -0.25 7.671875 -0.25 L 7.96875 -0.25 L 7.96875 0 L 0.859375 0 Z M 0.859375 -0.25 "/></g></g></g><g fill="#000000" fill-opacity="1"><g transform="translate(277.817691, 25.143803)"><g><path d="M 21.546875 -0.25 L 21.90625 -0.25 L 21.90625 0 L 14.921875 0 L 14.921875 -0.25 L 15.28125 -0.25 C 15.59375 -0.25 15.820312 -0.359375 15.96875 -0.578125 C 16.113281 -0.796875 16.164062 -1.019531 16.125 -1.25 L 15.15625 -8.421875 L 11.171875 -2.078125 C 10.566406 -1.128906 10.265625 -0.28125 10.265625 0.46875 L 10.03125 0.46875 L 4.25 -8.296875 L 3.390625 -1.25 C 3.359375 -1.019531 3.414062 -0.796875 3.5625 -0.578125 C 3.71875 -0.359375 3.945312 -0.25 4.25 -0.25 L 4.59375 -0.25 L 4.59375 0 L -0.171875 0 L -0.171875 -0.25 L 0.1875 -0.25 C 0.601562 -0.25 0.960938 -0.367188 1.265625 -0.609375 C 1.578125 -0.859375 1.757812 -1.191406 1.8125 -1.609375 L 3.765625 -15.375 L 3.96875 -15.375 L 11.0625 -4.765625 L 17.71875 -15.375 L 17.9375 -15.375 L 19.9375 -1.484375 C 20.019531 -1.097656 20.210938 -0.796875 20.515625 -0.578125 C 20.816406 -0.359375 21.160156 -0.25 21.546875 -0.25 Z M 21.546875 -0.25 "/></g></g></g><g fill="#000000" fill-opacity="1"><g transform="translate(303.572942, 25.143803)"><g><path d="M 16.703125 -0.25 L 16.90625 -0.25 L 16.90625 0 L 9.53125 0 L 9.53125 -0.25 L 9.734375 -0.25 C 10.066406 -0.25 10.304688 -0.347656 10.453125 -0.546875 C 10.609375 -0.753906 10.6875 -0.941406 10.6875 -1.109375 C 10.6875 -1.273438 10.65625 -1.445312 10.59375 -1.625 L 9.609375 -3.9375 L 4.296875 -3.9375 L 3.296875 -1.609375 C 3.222656 -1.441406 3.1875 -1.269531 3.1875 -1.09375 C 3.1875 -0.914062 3.265625 -0.726562 3.421875 -0.53125 C 3.585938 -0.34375 3.835938 -0.25 4.171875 -0.25 L 4.375 -0.25 L 4.375 0 L -0.640625 0 L -0.640625 -0.25 L -0.4375 -0.25 C -0.09375 -0.25 0.253906 -0.359375 0.609375 -0.578125 C 0.960938 -0.796875 1.242188 -1.125 1.453125 -1.5625 L 6.65625 -12.6875 C 7.382812 -14.34375 7.769531 -15.363281 7.8125 -15.75 L 8.03125 -15.75 L 14.75 -1.65625 C 14.96875 -1.164062 15.253906 -0.804688 15.609375 -0.578125 C 15.972656 -0.359375 16.335938 -0.25 16.703125 -0.25 Z M 4.71875 -4.921875 L 9.1875 -4.921875 L 6.984375 -10.15625 Z M 4.71875 -4.921875 "/></g></g></g></g></g></svg>