<?xml version="1.0" encoding="utf-8"?>
<!-- Generator: Adobe Illustrator 26.0.2, SVG Export Plug-In . SVG Version: 6.00 Build 0)  -->
<svg version="1.1" id="Layer_1" xmlns="http://www.w3.org/2000/svg" xmlns:xlink="http://www.w3.org/1999/xlink" x="0px" y="0px"
	 viewBox="0 0 512 508.5" style="enable-background:new 0 0 512 508.5;" xml:space="preserve">
<style type="text/css">
	.st0{fill-rule:evenodd;clip-rule:evenodd;fill:#8F181B;}
	.st1{fill-rule:evenodd;clip-rule:evenodd;fill:#EDBC1B;}
	.st2{fill-rule:evenodd;clip-rule:evenodd;fill:#006DB0;}
	.st3{fill-rule:evenodd;clip-rule:evenodd;fill:#00ADE6;}
</style>
<g>
	<path class="st0" d="M125.2,132.7H63.8c-7,0-12.7-5.7-12.7-12.7V58.4h59.3c8.1,0,14.7,6.6,14.7,14.7V132.7L125.2,132.7z"/>
	<path class="st1" d="M387.1,349.8h61.3c7,0,12.7,5.7,12.7,12.7V424h-59.3c-8.1,0-14.7-6.6-14.7-14.7L387.1,349.8L387.1,349.8z"/>
	<path class="st2" d="M80.8,361.4c24.2,0,44.1,19.8,44.1,44.1v58.2c0,24.6,20.1,44.8,44.8,44.8h102.7V403
		c0-22.8-18.6-41.4-41.4-41.4h-62.1c-23,0-41.9-18.2-43-40.9c0-0.7-0.1-1.4,0-2.1l0.4-53.6c0.1-16.4,10.9-28.9,30.7-28.9H201
		c15.1,0,27.4-12.3,27.4-27.4v-76H125.2v29.9v43.9c0,14.9-11,27.3-25.2,29.5H29.8C13.4,236,0,249.4,0,265.8v95.6L80.8,361.4
		L80.8,361.4z"/>
	<path class="st3" d="M481.8,99.3h-66.4c-15.8,0-28.8-13-28.8-28.8V24.4c0-13.4-11-24.4-24.4-24.4h-78.7v71.8c0,15.9,13,29,29,29
		H355c17.7,0,32.1,14.4,32.1,32.1v63.3c0,15.9-13,28.9-28.9,28.9h-69c-15.3,0-27.8,12.5-27.8,27.8v68.4c0,15.7,12.8,28.6,28.6,28.6
		h97.1v-94.3c0-16.7,13.7-30.4,30.4-30.4h63.3c17.1,0,31.1-14,31.1-31.1v-64.4C512,112.9,498.4,99.3,481.8,99.3z"/>
</g>
</svg>
